<svg xmlns="http://www.w3.org/2000/svg" width="603" height="414" viewBox="0 0 603 414" version="1.1"><path d="M 84.750 110.707 C 82.767 111.014, 81.969 111.742, 81.888 113.316 C 81.827 114.517, 81.842 156.658, 81.921 206.961 C 82.033 277.592, 82.343 298.599, 83.283 299.196 C 83.952 299.621, 91.362 299.976, 99.750 299.985 C 115 300, 115 300, 115 315.300 C 115 325.867, 115.371 330.971, 116.200 331.800 C 117.114 332.714, 137.422 333, 201.500 333 C 265.578 333, 285.886 332.714, 286.800 331.800 C 287.663 330.937, 288 324.208, 288 307.835 C 288 286.352, 287.891 285.012, 286.066 284.035 C 284.781 283.348, 258.587 283, 208.066 283 C 166.230 283, 131.915 282.887, 131.812 282.750 C 131.709 282.613, 131.371 243.800, 131.062 196.500 C 130.500 110.500, 130.500 110.500, 109 110.390 C 97.175 110.330, 86.263 110.472, 84.750 110.707 M 367.474 114.250 C 367.219 114.938, 366.895 126.038, 366.755 138.918 C 366.500 162.336, 366.500 162.336, 356 150.433 C 350.225 143.886, 344.303 137.173, 342.841 135.515 C 341.378 133.857, 339.311 131.412, 338.247 130.083 C 337.041 128.578, 335.715 127.895, 334.730 128.274 C 333.303 128.821, 333.137 138.703, 333.044 229.208 C 332.960 309.307, 333.198 329.888, 334.220 331.287 C 335.388 332.883, 337.578 333.014, 358.929 332.769 C 382.357 332.500, 382.357 332.500, 383.215 329.500 C 383.686 327.850, 384.011 301.750, 383.937 271.500 C 383.863 241.250, 383.847 214.363, 383.901 211.750 C 383.956 209.137, 384.353 207, 384.785 207 C 385.217 207, 391.003 213.188, 397.644 220.750 C 404.285 228.313, 414.124 239.450, 419.509 245.500 C 424.893 251.550, 431.266 258.669, 433.670 261.319 C 436.074 263.970, 438.636 265.995, 439.363 265.819 C 440.090 265.644, 450.260 254.700, 461.963 241.500 C 473.666 228.300, 485.519 214.912, 488.303 211.750 C 491.088 208.587, 493.630 206, 493.954 206 C 494.277 206, 494.369 233.610, 494.159 267.356 C 493.879 312.251, 494.084 329.288, 494.923 330.856 C 496.046 332.954, 496.571 333, 519.476 333 C 532.349 333, 543.089 332.662, 543.343 332.250 C 543.597 331.837, 544.106 318, 544.475 301.500 C 544.844 285, 544.822 239.213, 544.427 199.750 C 543.914 148.476, 543.394 128.005, 542.604 128.017 C 541.997 128.026, 534.750 135.743, 526.500 145.165 C 511.500 162.298, 511.500 162.298, 510.953 138.899 C 510.653 126.030, 510.315 115.388, 510.203 115.250 C 510.092 115.112, 509.351 115, 508.558 115 C 507.764 115, 504.952 117.534, 502.308 120.630 C 499.663 123.727, 493.675 130.635, 489 135.982 C 484.325 141.329, 471.105 156.363, 459.623 169.391 C 439.151 192.619, 438.707 193.045, 436.751 191.290 C 435.654 190.305, 420.974 173.153, 404.128 153.173 C 387.283 133.193, 372.883 115.981, 372.128 114.923 C 371.373 113.865, 370.122 113, 369.347 113 C 368.571 113, 367.729 113.563, 367.474 114.250 M 98 205 C 98 283, 98 283, 106.500 283 C 115 283, 115 283, 115 205 C 115 127, 115 127, 106.500 127 C 98 127, 98 127, 98 205 M 383.413 156.492 C 383.069 157.863, 382.989 163.919, 383.236 169.950 C 383.684 180.915, 383.684 180.915, 388.280 186.207 C 390.808 189.118, 397.516 196.757, 403.188 203.182 C 408.860 209.607, 418.900 220.939, 425.500 228.365 C 432.100 235.791, 438.175 241.897, 439 241.933 C 439.825 241.970, 442.925 239.187, 445.888 235.750 C 448.851 232.312, 454.304 226.125, 458.005 222 C 461.706 217.875, 470.533 207.975, 477.621 200 C 484.708 192.025, 491.449 184.290, 492.600 182.810 C 494.450 180.433, 494.718 178.598, 494.909 166.975 C 495.091 155.964, 494.892 153.884, 493.685 154.165 C 492.892 154.349, 485.776 161.949, 477.872 171.054 C 469.967 180.159, 458.100 193.767, 451.500 201.295 C 444.900 208.822, 438.989 214.985, 438.364 214.991 C 437.740 214.996, 425.441 201.275, 411.033 184.500 C 396.625 167.725, 384.657 154, 384.437 154 C 384.218 154, 383.757 155.121, 383.413 156.492 M 350 242 C 350 316, 350 316, 358.500 316 C 367 316, 367 316, 367 251.226 C 367 186.453, 367 186.453, 358.930 177.226 C 354.492 172.152, 350.667 168, 350.430 168 C 350.194 168, 350 201.300, 350 242 M 519.119 177.231 C 511 186.462, 511 186.462, 511 251.270 C 511 316.078, 511 316.078, 519.750 315.789 C 528.500 315.500, 528.500 315.500, 528.756 241.750 C 528.904 199.306, 528.636 168, 528.126 168 C 527.638 168, 523.585 172.154, 519.119 177.231 M 131.604 301.750 C 131.313 302.712, 131.089 305.075, 131.107 307 C 131.124 308.925, 131.368 311.738, 131.649 313.250 C 132.159 316, 132.159 316, 202.079 316 C 272 316, 272 316, 272 308 C 272 300, 272 300, 202.067 300 C 136.334 300, 132.103 300.105, 131.604 301.750 M 79.198 349.826 C 77.119 350.121, 76.926 350.604, 77.198 354.826 C 77.500 359.500, 77.500 359.500, 148.750 359.757 C 220 360.013, 220 360.013, 220 355.007 C 220 350.490, 219.780 349.997, 217.750 349.970 C 216.512 349.954, 185.350 349.841, 148.500 349.720 C 111.650 349.599, 80.464 349.647, 79.198 349.826" stroke="none" fill="#f8e66c" fill-rule="evenodd"/></svg>